<svg width="504" height="181" viewBox="0 0 504 181" fill="none" xmlns="http://www.w3.org/2000/svg">
<path fill-rule="evenodd" clip-rule="evenodd" d="M163.94 83.4991C165.66 35.9691 130.455 5.36517e-05 81.9776 0C33.4997 -3.97073e-05 -0.37516 33.2193 0.0155984 83.4991C-0.867952 132.059 35.8955 167.365 81.9776 166.997C85.7647 166.967 89.487 166.718 93.1294 166.259L72.2601 127.296C57.1957 122.488 46.6614 104.087 47.4777 86.9998V83.9998V80.4998C47.9777 68.9998 50.0078 60.9998 52.4777 55.9998C56.8453 47.7584 65.4777 38.4998 82.4777 38.4998C99.4777 38.4997 116.978 50.4998 115.978 81.9998V85.4998V89.4998C116.075 97.4532 113.809 104.987 109.846 111.274C103.989 120.567 94.4232 127.136 83.2979 128.312C83.2386 128.318 83.1792 128.324 83.1197 128.33L102.147 164.656C102.18 164.649 102.214 164.641 102.248 164.633C116.39 161.348 129.009 154.731 139.092 145.324C154.719 130.746 164.257 109.465 163.94 83.4991Z" fill="url(#paint0_linear_28_2)"/>
<path d="M139.092 145.324C129.009 154.731 116.39 161.348 102.248 164.633L108.44 176.5L165.44 176L139.092 145.324Z" fill="url(#paint1_linear_28_2)"/>
<path d="M83.2979 128.312C94.4232 127.136 103.989 120.567 109.846 111.274L95.4396 94.5L66.4396 96L83.2979 128.312Z" fill="url(#paint2_linear_28_2)"/>
<path d="M253.337 15.5C269.299 15.5 282.193 18.9718 291.737 26.207C301.433 33.5572 306.181 44.2648 306.181 57.9277C306.181 67.3614 303.66 75.5101 298.508 82.2275C295.031 86.7911 290.716 90.2862 285.604 92.7168C292.012 95.3628 297.272 99.3739 301.31 104.778L301.823 105.448C307.049 112.412 309.653 120.474 309.653 129.538C309.653 143.607 304.929 154.786 295.287 162.717L295.284 162.72C285.848 170.455 272.464 174.136 255.507 174.136H172.5V15.5H253.337ZM225.674 130.51H245.091C249.211 130.51 251.711 129.738 253.085 128.664C254.465 127.555 255.394 125.659 255.394 122.377C255.394 119.176 254.485 117.201 253.059 115.968C251.562 114.674 249.055 113.81 245.091 113.81H225.674V130.51ZM225.674 75.3916H241.836C245.929 75.3916 248.394 74.5581 249.757 73.3896L249.789 73.3623L249.822 73.3359C251.23 72.21 252.139 70.3636 252.139 67.2588C252.139 63.9708 251.207 62.0725 249.822 60.9648L249.75 60.9072L249.683 60.8447C248.322 59.5817 245.89 58.6924 241.836 58.6924H225.674V75.3916Z" stroke="url(#paint3_linear_28_2)" stroke-width="5"/>
<path d="M428 121.5V88L448 87.5V57.1123H428V29H386.293V57.1123H371V87.5H386.293V129.373C388.5 168.5 406 177.5 428.5 175.5L428.985 180.477L428.942 180.48C416.842 181.556 405.803 179.844 396 171.5C384 157.5 381.293 140.5 381.293 128.994V92.5H366V52.1123H381.293V24H433V52.1123H453V92.377L433 92.876V121.5C433 123.08 432.892 125.516 432.846 127.256C432.824 128.088 432.814 128.785 432.822 129.311L432.864 130.268V131.727C432.858 131.544 432.838 131.973 432.864 131.727C432.875 131.607 432.859 131.778 432.864 131.727C432.843 131.967 432.88 132.544 432.864 132.984C432.832 133.891 432.85 135.015 433.008 136.076C433.159 137.09 433.391 137.716 433.566 138.026C436.272 138.218 438.558 138.007 440.151 137.751C440.963 137.62 441.586 137.479 441.982 137.379C442.18 137.329 442.32 137.29 442.398 137.267C442.437 137.255 442.462 137.247 442.469 137.245L447.708 135.505L455.876 172.666L454.5 174.5C453.747 175.504 452.807 176.046 452.366 176.282C451.821 176.574 451.259 176.796 450.773 176.966C449.795 177.308 448.649 177.601 447.503 177.853C445.184 178.362 442.333 178.821 439.637 179.201C436.918 179.585 434.258 179.903 432.285 180.125C431.297 180.236 430.477 180.324 429.901 180.384C429.614 180.414 429.386 180.436 429.23 180.452C429.153 180.46 429.093 180.466 429.052 180.47C429.031 180.472 429.015 180.474 429.004 180.475C428.999 180.475 428.994 180.475 428.991 180.476L428.987 180.477L428.5 175.5C428.5 175.5 449 173.5 450.5 171.5L444.016 142C443.97 142.015 439.467 143.497 433 143C426.5 142.5 428 131 428 131C428 130.268 428 124.5 428 121.5ZM442.444 137.253L442.441 137.254L442.446 137.252L442.444 137.253ZM442.456 137.249L442.452 137.25L442.461 137.247L442.456 137.249Z" fill="url(#paint4_linear_28_2)"/>
<path d="M359.5 60.5H318V176.5H359.5V60.5Z" stroke="url(#paint5_linear_28_2)" stroke-width="5"/>
<path d="M359.5 51.5H318V22H359.5V51.5Z" stroke="url(#paint6_linear_28_2)" stroke-width="5"/>
<ellipse cx="482" cy="154.5" rx="22" ry="21.5" fill="url(#paint7_linear_28_2)"/>
<defs>
<linearGradient id="paint0_linear_28_2" x1="82.7198" y1="0" x2="82.7198" y2="176.5" gradientUnits="userSpaceOnUse">
<stop stop-color="#439DDF"/>
<stop offset="0.221154" stop-color="#4F87ED"/>
<stop offset="0.466346" stop-color="#9476C5"/>
<stop offset="0.754808" stop-color="#5E5BAA"/>
<stop offset="1" stop-color="#3B3888"/>
</linearGradient>
<linearGradient id="paint1_linear_28_2" x1="82.7198" y1="0" x2="82.7198" y2="176.5" gradientUnits="userSpaceOnUse">
<stop stop-color="#439DDF"/>
<stop offset="0.221154" stop-color="#4F87ED"/>
<stop offset="0.466346" stop-color="#9476C5"/>
<stop offset="0.754808" stop-color="#5E5BAA"/>
<stop offset="1" stop-color="#3B3888"/>
</linearGradient>
<linearGradient id="paint2_linear_28_2" x1="82.7198" y1="0" x2="82.7198" y2="176.5" gradientUnits="userSpaceOnUse">
<stop stop-color="#439DDF"/>
<stop offset="0.221154" stop-color="#4F87ED"/>
<stop offset="0.466346" stop-color="#9476C5"/>
<stop offset="0.754808" stop-color="#5E5BAA"/>
<stop offset="1" stop-color="#3B3888"/>
</linearGradient>
<linearGradient id="paint3_linear_28_2" x1="241.077" y1="18" x2="241.077" y2="171.636" gradientUnits="userSpaceOnUse">
<stop stop-color="#439DDF"/>
<stop offset="0.22" stop-color="#4F87ED"/>
<stop offset="0.47" stop-color="#9476C5"/>
<stop offset="0.75" stop-color="#5E5BAA"/>
<stop offset="1" stop-color="#3B3888"/>
</linearGradient>
<linearGradient id="paint4_linear_28_2" x1="410.75" y1="29" x2="410.75" y2="175.718" gradientUnits="userSpaceOnUse">
<stop stop-color="#439DDF"/>
<stop offset="0.22" stop-color="#4F87ED"/>
<stop offset="0.47" stop-color="#9476C5"/>
<stop offset="0.75" stop-color="#5E5BAA"/>
<stop offset="1" stop-color="#3B3888"/>
</linearGradient>
<linearGradient id="paint5_linear_28_2" x1="338.75" y1="22" x2="338.75" y2="176.5" gradientUnits="userSpaceOnUse">
<stop stop-color="#439DDF"/>
<stop offset="0.22" stop-color="#4F87ED"/>
<stop offset="0.47" stop-color="#9476C5"/>
<stop offset="0.75" stop-color="#5E5BAA"/>
<stop offset="1" stop-color="#3B3888"/>
</linearGradient>
<linearGradient id="paint6_linear_28_2" x1="338.75" y1="22" x2="338.75" y2="176.5" gradientUnits="userSpaceOnUse">
<stop stop-color="#439DDF"/>
<stop offset="0.22" stop-color="#4F87ED"/>
<stop offset="0.47" stop-color="#9476C5"/>
<stop offset="0.75" stop-color="#5E5BAA"/>
<stop offset="1" stop-color="#3B3888"/>
</linearGradient>
<linearGradient id="paint7_linear_28_2" x1="482" y1="22.5" x2="482" y2="176" gradientUnits="userSpaceOnUse">
<stop stop-color="#439DDF"/>
<stop offset="0.22" stop-color="#4F87ED"/>
<stop offset="0.47" stop-color="#9476C5"/>
<stop offset="0.75" stop-color="#5E5BAA"/>
<stop offset="1" stop-color="#3B3888"/>
</linearGradient>
</defs>
</svg>
